<?xml version="1.0" encoding="UTF-8"?>
<svg xmlns="http://www.w3.org/2000/svg" xmlns:xlink="http://www.w3.org/1999/xlink" width="1920pt" height="1080pt" viewBox="0 0 1920 1080" version="1.1">
<g id="surface1">
<path style=" stroke:none;fill-rule:nonzero;fill:rgb(0.392151%,57.647705%,26.274109%);fill-opacity:1;" d="M 945.996094 888.785156 L 795.550781 739.019531 C 776.519531 720.074219 776.453125 689.289063 795.398438 670.257813 C 814.34375 651.226563 845.128906 651.15625 864.15625 670.101563 L 946.410156 751.984375 L 1177.65625 524.550781 C 1196.804688 505.722656 1227.585938 505.976563 1246.417969 525.125 C 1265.246094 544.269531 1264.988281 575.054688 1245.84375 593.882813 Z M 945.996094 888.785156 "/>
<path style=" stroke:none;fill-rule:nonzero;fill:rgb(97.647095%,47.450256%,9.411621%);fill-opacity:1;" d="M 743.777344 616.773438 C 792.285156 568.042969 871.109375 567.867188 919.839844 616.375 L 948.394531 644.796875 L 1124.984375 471.117188 C 1174.007813 422.90625 1252.828125 423.5625 1301.042969 472.582031 C 1313.253906 484.996094 1322.324219 499.328125 1328.273438 514.582031 C 1377.617188 467.445313 1408.378906 401.019531 1408.378906 327.390625 C 1408.378906 184.410156 1292.472656 68.5 1149.488281 68.5 C 1069.601563 68.5 998.171875 104.695313 950.683594 161.570313 C 903.195313 104.25 831.476563 67.734375 751.226563 67.734375 C 608.246094 67.734375 492.335938 183.640625 492.335938 326.625 C 492.335938 407.140625 529.097656 479.074219 586.75 526.554688 L 715.46875 660.722656 C 721.488281 644.710938 730.921875 629.683594 743.777344 616.773438 "/>
<path style=" stroke:none;fill-rule:nonzero;fill:rgb(16.078186%,16.862488%,46.273804%);fill-opacity:1;" d="M 465.511719 904.066406 L 458.753906 932.894531 L 473.910156 932.894531 L 467.320313 904.066406 Z M 449.035156 975.398438 L 414.273438 975.398438 L 440.964844 872.433594 L 491.867188 872.433594 L 518.554688 975.398438 L 483.796875 975.398438 L 480.007813 959.085938 L 452.824219 959.085938 Z M 449.035156 975.398438 "/>
<path style=" stroke:none;fill-rule:nonzero;fill:rgb(16.078186%,16.862488%,46.273804%);fill-opacity:1;" d="M 552.328125 947.0625 L 552.328125 953.816406 L 559.082031 953.816406 C 563.914063 953.816406 567.015625 953.265625 568.390625 952.167969 C 569.761719 951.070313 570.449219 949.640625 570.449219 947.886719 L 570.449219 940.140625 L 563.695313 940.140625 C 559.742188 940.140625 556.859375 940.554688 555.046875 941.378906 C 553.234375 942.203125 552.328125 944.097656 552.328125 947.0625 M 563.859375 890.554688 C 590.21875 890.554688 603.398438 899.617188 603.398438 917.738281 L 603.398438 975.398438 L 586.921875 975.398438 L 577.53125 966.007813 C 574.347656 969.742188 570.007813 972.652344 564.519531 974.738281 C 559.023438 976.824219 553.835938 977.867188 548.949219 977.867188 C 544.0625 977.867188 540.136719 977.484375 537.171875 976.714844 C 534.207031 975.945313 531.292969 974.628906 528.441406 972.761719 C 522.179688 968.804688 519.050781 961.453125 519.050781 950.6875 C 519.050781 930.917969 533.984375 921.035156 563.859375 921.035156 L 570.449219 921.035156 L 570.449219 915.101563 C 566.933594 914.882813 564.023438 914.773438 561.71875 914.773438 C 549.304688 914.773438 538.652344 916.253906 529.757813 919.21875 L 525.804688 895.664063 C 536.785156 892.257813 549.46875 890.554688 563.859375 890.554688 "/>
<path style=" stroke:none;fill-rule:nonzero;fill:rgb(16.078186%,16.862488%,46.273804%);fill-opacity:1;" d="M 618.222656 893.027344 L 634.695313 893.027344 L 643.757813 902.253906 C 650.234375 896.320313 658.363281 892.421875 668.136719 890.554688 L 670.113281 921.691406 C 667.480469 921.800781 664.046875 922.460938 659.816406 923.667969 C 655.589844 924.878906 652.707031 926.414063 651.171875 928.28125 L 651.171875 975.398438 L 618.222656 975.398438 Z M 618.222656 893.027344 "/>
<path style=" stroke:none;fill-rule:nonzero;fill:rgb(16.078186%,16.862488%,46.273804%);fill-opacity:1;" d="M 712.125 921.527344 L 712.125 953.816406 L 717.230469 953.816406 C 721.183594 953.816406 724.066406 953.402344 725.878906 952.582031 C 727.691406 951.757813 728.597656 949.863281 728.597656 946.898438 L 728.597656 914.609375 L 723.492188 914.609375 C 719.535156 914.609375 716.652344 915.019531 714.84375 915.84375 C 713.03125 916.667969 712.125 918.5625 712.125 921.527344 M 687 967.078125 C 680.136719 959.886719 676.703125 948.929688 676.703125 934.210938 C 676.703125 919.496094 680.136719 908.542969 687 901.347656 C 693.863281 894.15625 704.984375 890.554688 720.359375 890.554688 C 735.734375 890.554688 746.855469 894.15625 753.722656 901.347656 C 760.582031 908.542969 764.019531 919.496094 764.019531 934.210938 C 764.019531 948.929688 760.582031 959.886719 753.722656 967.078125 C 746.855469 974.273438 735.734375 977.867188 720.359375 977.867188 C 704.984375 977.867188 693.863281 974.273438 687 967.078125 "/>
<path style=" stroke:none;fill-rule:nonzero;fill:rgb(16.078186%,16.862488%,46.273804%);fill-opacity:1;" d="M 802.402344 919.386719 L 802.402344 930.09375 L 807.507813 930.09375 C 811.464844 930.09375 814.347656 929.679688 816.15625 928.859375 C 817.96875 928.03125 818.875 926.140625 818.875 923.175781 L 818.875 912.464844 L 813.769531 912.464844 C 809.816406 912.464844 806.933594 912.878906 805.121094 913.699219 C 803.308594 914.527344 802.402344 916.417969 802.402344 919.386719 M 772.75 997.636719 L 777.03125 973.089844 C 786.363281 976.277344 797.292969 977.867188 809.816406 977.867188 C 813.546875 977.867188 816.183594 977.757813 817.722656 977.539063 L 817.722656 971.773438 C 807.945313 971.773438 801.550781 971.363281 798.53125 970.535156 C 795.507813 969.714844 793.53125 968.890625 792.601563 968.066406 C 791.664063 967.242188 791.117188 966.558594 790.953125 966.007813 C 790.789063 965.457031 790.703125 964.6875 790.703125 963.699219 L 795.648438 949.53125 C 787.738281 948.105469 781.726563 945.140625 777.609375 940.636719 C 773.488281 936.132813 771.429688 929.078125 771.429688 919.464844 C 771.429688 909.859375 774.667969 902.640625 781.152344 897.804688 C 787.628906 892.972656 798.171875 890.554688 812.78125 890.554688 C 818.050781 890.554688 822.71875 890.882813 826.785156 891.542969 L 841.117188 880.503906 L 858.414063 897.144531 L 849.023438 908.183594 C 850.449219 912.027344 851.164063 916.96875 851.164063 923.007813 C 851.164063 931.6875 848.996094 938.140625 844.65625 942.367188 C 840.320313 946.59375 832.605469 949.148438 821.511719 950.027344 L 820.851563 953.980469 C 832.714844 954.640625 841.089844 956.425781 845.976563 959.335938 C 850.859375 962.246094 853.308594 967.601563 853.308594 975.398438 C 853.308594 988.683594 846.882813 996.921875 834.03125 1000.109375 C 827.660156 1001.753906 819.066406 1002.578125 808.25 1002.578125 C 797.429688 1002.578125 785.597656 1000.933594 772.75 997.636719 "/>
<path style=" stroke:none;fill-rule:nonzero;fill:rgb(16.078186%,16.862488%,46.273804%);fill-opacity:1;" d="M 875.710938 966.832031 L 857.257813 893.027344 L 890.207031 893.027344 L 899.269531 946.566406 L 900.917969 946.566406 L 909.976563 893.027344 L 942.925781 893.027344 L 922.332031 975.398438 C 919.257813 986.160156 915.414063 993.378906 910.800781 997.058594 C 906.1875 1000.738281 899.542969 1002.582031 890.867188 1002.582031 L 858.90625 1002.582031 L 858.90625 981.164063 L 874.390625 978.199219 C 882.300781 976.4375 887.460938 974.464844 889.878906 972.265625 C 891.195313 971.058594 892.292969 969.578125 893.171875 967.816406 L 893.007813 966.832031 Z M 875.710938 966.832031 "/>
<path style=" stroke:none;fill-rule:nonzero;fill:rgb(16.078186%,16.862488%,46.273804%);fill-opacity:1;" d="M 978.671875 947.0625 L 978.671875 953.816406 L 985.425781 953.816406 C 990.257813 953.816406 993.359375 953.265625 994.734375 952.167969 C 996.105469 951.070313 996.792969 949.640625 996.792969 947.886719 L 996.792969 940.140625 L 990.039063 940.140625 C 986.085938 940.140625 983.203125 940.554688 981.390625 941.378906 C 979.578125 942.203125 978.671875 944.097656 978.671875 947.0625 M 990.203125 890.554688 C 1016.5625 890.554688 1029.742188 899.617188 1029.742188 917.738281 L 1029.742188 975.398438 L 1013.269531 975.398438 L 1003.878906 966.007813 C 1000.691406 969.742188 996.355469 972.652344 990.863281 974.738281 C 985.371094 976.824219 980.179688 977.867188 975.292969 977.867188 C 970.40625 977.867188 966.480469 977.484375 963.515625 976.714844 C 960.550781 975.945313 957.640625 974.628906 954.785156 972.761719 C 948.523438 968.804688 945.394531 961.453125 945.394531 950.6875 C 945.394531 930.917969 960.328125 921.035156 990.203125 921.035156 L 996.792969 921.035156 L 996.792969 915.101563 C 993.277344 914.882813 990.367188 914.773438 988.0625 914.773438 C 975.652344 914.773438 965 916.253906 956.101563 919.21875 L 952.148438 895.664063 C 963.128906 892.257813 975.816406 890.554688 990.203125 890.554688 "/>
<path style=" stroke:none;fill-rule:nonzero;fill:rgb(16.078186%,16.862488%,46.273804%);fill-opacity:1;" d="M 1065.15625 973.585938 L 1069.769531 946.402344 C 1079.875 948.929688 1088.964844 950.191406 1097.035156 950.191406 C 1105.109375 950.191406 1111.617188 949.863281 1116.558594 949.203125 L 1116.558594 940.964844 L 1101.730469 939.648438 C 1088.332031 938.441406 1079.132813 935.226563 1074.136719 930.011719 C 1069.136719 924.796875 1066.640625 917.078125 1066.640625 906.863281 C 1066.640625 892.808594 1069.6875 883.140625 1075.785156 877.871094 C 1081.878906 872.597656 1092.230469 869.964844 1106.839844 869.964844 C 1121.441406 869.964844 1134.625 871.339844 1146.375 874.082031 L 1142.257813 900.4375 C 1132.042969 898.792969 1123.859375 897.96875 1117.710938 897.96875 C 1111.558594 897.96875 1106.34375 898.242188 1102.058594 898.792969 L 1102.058594 906.863281 L 1113.921875 908.019531 C 1128.308594 909.445313 1138.246094 912.878906 1143.738281 918.3125 C 1149.230469 923.75 1151.976563 931.304688 1151.976563 940.964844 C 1151.976563 947.886719 1151.042969 953.734375 1149.175781 958.511719 C 1147.308594 963.289063 1145.085938 966.914063 1142.503906 969.382813 C 1139.921875 971.855469 1136.269531 973.75 1131.550781 975.066406 C 1126.824219 976.386719 1122.679688 977.179688 1119.109375 977.457031 C 1115.539063 977.730469 1110.792969 977.867188 1104.859375 977.867188 C 1090.582031 977.867188 1077.347656 976.4375 1065.15625 973.585938 "/>
<path style=" stroke:none;fill-rule:nonzero;fill:rgb(16.078186%,16.862488%,46.273804%);fill-opacity:1;" d="M 1196.457031 921.527344 L 1196.457031 928.28125 L 1203.210938 928.28125 C 1207.164063 928.28125 1210.046875 927.871094 1211.859375 927.046875 C 1213.671875 926.222656 1214.578125 924.328125 1214.578125 921.363281 L 1214.578125 914.609375 L 1207.824219 914.609375 C 1203.871094 914.609375 1200.984375 915.019531 1199.175781 915.84375 C 1197.363281 916.667969 1196.457031 918.5625 1196.457031 921.527344 M 1196.457031 947.390625 L 1196.457031 953.15625 C 1199.753906 953.484375 1203.046875 953.652344 1206.339844 953.652344 C 1216.554688 953.652344 1226.878906 952.003906 1237.3125 948.710938 L 1241.265625 972.925781 C 1228.964844 976.21875 1216.773438 977.867188 1204.691406 977.867188 C 1189.316406 977.867188 1178.195313 974.273438 1171.332031 967.078125 C 1164.46875 959.886719 1161.035156 948.929688 1161.035156 934.210938 C 1161.035156 919.496094 1164.46875 908.542969 1171.332031 901.347656 C 1178.195313 894.15625 1189.289063 890.554688 1204.609375 890.554688 C 1219.933594 890.554688 1230.5 892.644531 1236.324219 896.816406 C 1242.144531 900.992188 1245.054688 908.789063 1245.054688 920.210938 C 1245.054688 929.875 1241.566406 936.820313 1234.59375 941.046875 C 1227.617188 945.277344 1214.90625 947.390625 1196.457031 947.390625 "/>
<path style=" stroke:none;fill-rule:nonzero;fill:rgb(16.078186%,16.862488%,46.273804%);fill-opacity:1;" d="M 1252.46875 914.277344 L 1252.46875 893.027344 L 1260.703125 893.027344 L 1260.703125 879.847656 L 1293.652344 871.609375 L 1293.652344 893.027344 L 1305.019531 893.027344 L 1305.019531 914.277344 L 1293.652344 914.277344 L 1293.652344 951.839844 C 1296.507813 952.390625 1299.746094 952.773438 1303.371094 952.992188 L 1301.890625 977.210938 C 1286.84375 977.210938 1277.066406 976.386719 1272.566406 974.738281 C 1266.960938 972.761719 1263.449219 970.125 1262.023438 966.832031 C 1261.140625 964.851563 1260.703125 962.546875 1260.703125 959.910156 L 1260.703125 914.277344 Z M 1252.46875 914.277344 "/>
<path style=" stroke:none;fill-rule:nonzero;fill:rgb(16.078186%,16.862488%,46.273804%);fill-opacity:1;" d="M 1348.675781 893.027344 L 1348.675781 953.816406 L 1353.78125 953.816406 C 1357.738281 953.816406 1360.617188 953.402344 1362.429688 952.582031 C 1364.242188 951.757813 1365.148438 949.863281 1365.148438 946.898438 L 1365.148438 893.027344 L 1398.097656 893.027344 L 1398.097656 975.398438 L 1381.625 975.398438 L 1372.070313 966.007813 C 1365.480469 973.914063 1356.089844 977.867188 1343.898438 977.867188 C 1334.121094 977.867188 1326.984375 975.78125 1322.484375 971.605469 C 1317.976563 967.433594 1315.726563 960.464844 1315.726563 950.6875 L 1315.726563 893.027344 Z M 1348.675781 893.027344 "/>
</g>
</svg>
